HIERARCHY
ROOT root
{
	OFFSET 0.000000 0.000000 0.000000
	CHANNELS 6 Xposition Yposition Zposition Zrotation Yrotation Xrotation
	JOINT lhip
	{
		OFFSET 0.058581 -0.082280 -0.017664
		CHANNELS 3 Zrotation Yrotation Xrotation
		JOINT lknee
		{
			OFFSET 0.043451 -0.386469 0.008037
			CHANNELS 3 Zrotation Yrotation Xrotation
			JOINT lankle
			{
				OFFSET -0.014790 -0.426874 -0.037428
				CHANNELS 3 Zrotation Yrotation Xrotation
				JOINT ltoe
				{
					OFFSET 0.041054 -0.060286 0.122042
					CHANNELS 3 Zrotation Yrotation Xrotation
					End Site
					{
						OFFSET 0.000000 0.000000 0.000000
					}
				}
			}
		}
	}
	JOINT rhip
	{
		OFFSET -0.060310 -0.090513 -0.013543
		CHANNELS 3 Zrotation Yrotation Xrotation
		JOINT rknee
		{
			OFFSET -0.043257 -0.383688 -0.004843
			CHANNELS 3 Zrotation Yrotation Xrotation
			JOINT rankle
			{
				OFFSET 0.019056 -0.420046 -0.034562
				CHANNELS 3 Zrotation Yrotation Xrotation
				JOINT rtoe
				{
					OFFSET -0.034840 -0.062106 0.130323
					CHANNELS 3 Zrotation Yrotation Xrotation
					End Site
					{
						OFFSET 0.000000 0.000000 0.000000
					}
				}
			}
		}
	}
	JOINT lowerback
	{
		OFFSET 0.004439 0.124404 -0.038385
		CHANNELS 3 Zrotation Yrotation Xrotation
		JOINT upperback
		{
			OFFSET 0.004488 0.137956 0.026820
			CHANNELS 3 Zrotation Yrotation Xrotation
			JOINT chest
			{
				OFFSET -0.002265 0.056032 0.002855
				CHANNELS 3 Zrotation Yrotation Xrotation
				JOINT lowerneck
				{
					OFFSET -0.013390 0.211636 -0.033468
					CHANNELS 3 Zrotation Yrotation Xrotation
					JOINT upperneck
					{
						OFFSET 0.010113 0.088937 0.050410
						CHANNELS 3 Zrotation Yrotation Xrotation
						End Site
						{
							OFFSET 0.000000 0.000000 0.000000
						}
					}
				}
				JOINT lclavicle
				{
					OFFSET 0.071702 0.114000 -0.018898
					CHANNELS 3 Zrotation Yrotation Xrotation
					JOINT lshoulder
					{
						OFFSET 0.122921 0.045205 -0.019046
						CHANNELS 3 Zrotation Yrotation Xrotation
						JOINT lelbow
						{
							OFFSET 0.255332 -0.015649 -0.022946
							CHANNELS 3 Zrotation Yrotation Xrotation
							JOINT lwrist
							{
								OFFSET 0.265709 0.012698 -0.007375
								CHANNELS 3 Zrotation Yrotation Xrotation
								End Site
								{
									OFFSET 0.000000 0.000000 0.000000
								}
							}
						}
					}
				}
				JOINT rclavicle
				{
					OFFSET -0.082954 0.112472 -0.023707
					CHANNELS 3 Zrotation Yrotation Xrotation
					JOINT rshoulder
					{
						OFFSET -0.113228 0.046853 -0.008472
						CHANNELS 3 Zrotation Yrotation Xrotation
						JOINT relbow
						{
							OFFSET -0.260127 -0.014369 -0.031269
							CHANNELS 3 Zrotation Yrotation Xrotation
							JOINT rwrist
							{
								OFFSET -0.269108 0.006794 -0.006027
								CHANNELS 3 Zrotation Yrotation Xrotation
								End Site
								{
									OFFSET 0.000000 0.000000 0.000000
								}
							}
						}
					}
				}
			}
		}
	}
}
MOTION
Frames: 8
Frame Time: 0.033333
0.354478 0.175919 0.992736 88.810271 -0.111069 85.245600 6.296726 4.912625 6.318772 -3.999616 -4.552734 0.773078 0.769985 8.999533 -5.461440 0.000000 -0.000000 0.000000 -7.858734 -4.994740 5.385075 1.612475 -1.016447 3.585071 6.883204 -4.635741 -6.914366 0.000000 -0.000000 0.000000 -7.951003 4.848270 -11.009249 4.753365 -2.109730 19.068163 -0.580264 3.369491 -5.529983 4.228613 -9.692511 10.958987 9.151682 -10.977928 7.921671 -26.520218 1.524410 0.080842 -54.272512 -8.031050 23.005135 4.684562 -26.806774 1.851559 1.847355 -11.869273 4.339187 29.389486 3.413222 4.731646 50.075428 2.453302 12.584852 -16.182457 55.875882 -23.429554 -20.465486 8.574933 -11.173856 
0.354525 0.176018 0.992641 89.489763 -0.187715 85.146474 6.220117 4.737864 6.231254 -3.998602 -4.848925 0.861128 0.743749 8.852942 -5.419580 0.000000 -0.000000 0.000000 -7.946678 -5.093926 5.711221 1.614237 -1.323525 3.450491 6.845988 -4.756056 -6.965246 0.000000 -0.000000 0.000000 -7.762880 4.856164 -10.966079 4.617682 -2.247767 19.267675 -0.594133 3.134521 -5.365317 4.187112 -9.369393 10.706585 9.615502 -10.416489 6.600331 -26.548057 1.393854 -0.207759 -53.884846 -8.289051 23.219639 4.597277 -28.010440 1.283323 1.715726 -11.265718 3.926982 28.819237 3.134923 4.288513 50.222068 1.717083 12.633605 -17.491438 59.352329 -26.699395 -18.578977 7.058487 -14.832208 
0.354639 0.176025 0.992623 90.190139 -0.281104 85.110272 6.134668 4.467298 6.136849 -4.018320 -5.032812 0.842742 0.695442 8.619417 -5.308908 0.000000 -0.000000 0.000000 -8.052377 -5.239253 5.819123 1.614290 -1.784293 3.606662 6.756682 -4.722214 -7.053389 0.000000 -0.000000 0.000000 -7.475917 4.756157 -10.871982 4.367833 -2.455362 19.365326 -0.689960 2.784017 -5.188186 4.305898 -8.561785 10.460975 9.944253 -9.348196 4.790304 -26.577248 1.467185 -0.755543 -53.457385 -8.022998 23.373051 4.854860 -29.605218 0.453056 1.954553 -10.803762 3.707879 28.098867 2.736047 3.778167 50.697837 0.762817 12.947685 -19.700709 64.394191 -30.286075 -17.182217 6.162189 -17.713117 
0.354821 0.175817 0.992775 90.740758 -0.316548 84.955367 6.156301 4.250278 6.302906 -4.071156 -5.213896 0.689843 0.609484 8.429088 -5.206674 0.000000 -0.000000 0.000000 -8.020907 -5.175812 5.935467 1.522165 -2.368865 3.938296 6.720335 -4.693722 -7.273222 0.000000 -0.000000 0.000000 -7.170706 4.473110 -10.610163 4.138933 -2.655796 19.284775 -0.669392 2.572672 -4.871224 4.374455 -7.326311 10.261504 10.007687 -7.892228 2.681974 -26.506505 1.484990 -1.288591 -53.316184 -7.446741 23.183869 5.324742 -31.055232 -0.285860 2.026844 -10.663846 3.520368 27.447928 2.678291 3.352454 50.983138 0.339341 12.972550 -23.004676 70.031915 -34.411877 -15.638762 6.157775 -19.383720 
0.354217 0.175270 0.992862 90.716684 -0.366755 84.814786 6.100296 4.202277 6.514317 -4.012952 -5.237835 0.486721 0.617770 8.493317 -5.134897 0.000000 -0.000000 0.000000 -8.003080 -5.049591 5.667373 1.429186 -2.562265 4.605272 6.645681 -4.547002 -7.523141 0.000000 -0.000000 0.000000 -6.942918 4.168575 -10.161328 4.139340 -2.685396 18.758155 -0.569149 2.371916 -4.429146 4.068110 -6.374499 9.959943 9.737254 -5.792490 1.239916 -26.362725 1.722785 -1.744069 -53.545884 -6.971149 22.935080 5.681623 -32.059449 -0.211320 2.476522 -10.303391 2.627348 27.017623 2.312549 2.585855 50.352572 2.041451 13.127065 -24.057354 74.943344 -35.520245 -14.052216 5.514594 -22.212495 
0.353179 0.174334 0.992921 90.042285 -0.449858 84.616761 6.034216 4.306778 6.851542 -3.959525 -4.805052 0.299786 0.643139 8.522456 -5.051862 0.000000 -0.000000 0.000000 -8.032491 -4.737489 5.297940 1.363982 -2.610237 5.238259 6.566437 -4.107430 -7.666179 0.000000 -0.000000 0.000000 -6.541891 3.912544 -9.715899 4.027692 -2.468787 18.357737 -0.530560 2.435177 -4.233840 4.218843 -5.126505 9.638111 8.797314 -4.381060 0.337000 -25.766730 1.442611 -2.237592 -54.174407 -6.120852 23.031747 6.051691 -32.534348 -0.611563 2.976026 -10.033518 1.624180 26.186393 3.693619 2.282687 50.213221 4.749420 14.078609 -31.495337 77.684807 -43.989698 -14.703884 4.675233 -24.648415 
0.353766 0.173427 0.993242 89.534033 -0.512537 84.808278 5.907096 4.331684 6.769120 -3.826903 -4.368013 0.277955 0.635024 8.514098 -5.056323 0.000000 -0.000000 0.000000 -8.082630 -4.984422 4.955430 1.326109 -2.463597 5.332049 6.670686 -3.553505 -7.724133 0.000000 -0.000000 0.000000 -6.395443 4.091956 -10.800981 3.993410 -3.000656 19.087483 -0.452755 2.551092 -4.316605 3.887766 -4.663485 9.638970 8.403548 -2.695489 0.080767 -25.408855 0.781478 -2.191257 -54.410711 -5.245990 22.502420 5.959248 -32.986880 0.410866 3.480449 -9.817966 0.566162 25.639402 5.335070 2.727978 49.545153 9.349216 13.928013 -36.767607 78.944944 -49.499467 -15.076308 4.776049 -26.104714 
0.352763 0.172232 0.993653 88.310968 -0.620894 84.623434 5.807307 4.647312 7.102119 -3.725918 -3.845346 0.274549 0.657580 8.768406 -5.131277 0.000000 -0.000000 0.000000 -8.116133 -4.700134 4.712978 1.257931 -2.060299 5.511195 6.737899 -3.067144 -7.766779 0.000000 -0.000000 0.000000 -5.942565 4.122152 -10.891239 3.942874 -2.735160 19.194913 -0.593077 2.987891 -4.302302 3.947201 -4.563534 9.549763 7.924731 -1.402428 0.074270 -25.006865 0.013133 -2.271083 -54.580794 -4.736251 22.197226 5.606099 -32.974475 1.995775 4.254286 -9.692550 -0.416691 25.214160 7.142230 3.421413 48.527005 14.780225 14.019856 -39.486591 79.636904 -52.355879 -17.495694 4.333048 -28.438011 
